<svg width="22" height="23" viewBox="0 0 22 23" fill="none" xmlns="http://www.w3.org/2000/svg">
<path d="M20.1666 8.06254V6.00004C20.1666 3.975 18.525 2.33337 16.5 2.33337H5.49998C3.47494 2.33337 1.83331 3.975 1.83331 6.00004V8.06254C1.83331 9.96102 3.20133 11.5 4.88887 11.5C6.57641 11.5 7.94442 9.96102 7.94442 8.06254C7.94442 9.96102 9.31244 11.5 11 11.5C12.6875 11.5 14.0555 9.96102 14.0555 8.06254C14.0555 9.96102 15.4236 11.5 17.1111 11.5C18.7986 11.5 20.1666 9.96102 20.1666 8.06254Z" stroke="white" stroke-width="1.5" stroke-linejoin="round"/>
<path d="M8.25 17C10.4098 18.2287 11.5936 18.2158 13.75 17" stroke="white" stroke-width="1.5" stroke-linecap="round" stroke-linejoin="round"/>
<path d="M19.25 10.5834V17C19.25 19.0251 17.6084 20.6667 15.5833 20.6667H6.41667C4.39162 20.6667 2.75 19.0251 2.75 17V10.5834" stroke="white" stroke-width="1.5" stroke-linejoin="round"/>
</svg>
