<svg width="188" height="59" viewBox="0 0 188 59" fill="none" xmlns="http://www.w3.org/2000/svg">
<path d="M66.202 33.672V36.73C66.202 38.1233 66.5467 39.0987 67.236 39.656C67.94 40.228 69.1427 40.514 70.844 40.514C72.3253 40.514 73.396 40.3233 74.056 39.942C74.8627 39.4873 75.3247 38.6733 75.442 37.5H74.078L72.934 36.092V35.256H79.006V37.5H78.17C78.0527 39.3333 77.3193 40.712 75.97 41.636C74.914 42.384 73.572 42.758 71.944 42.758H69.766C67.918 42.758 66.444 42.2813 65.344 41.328C64.1267 40.3307 63.518 38.8787 63.518 36.972V34.75L64.882 33.672H66.202ZM69.106 44.034C69.502 44.034 69.8393 44.1733 70.118 44.452C70.3967 44.7307 70.536 45.068 70.536 45.464C70.536 45.86 70.3967 46.1973 70.118 46.476C69.8393 46.7547 69.502 46.894 69.106 46.894C68.71 46.894 68.3727 46.7547 68.094 46.476C67.8153 46.1973 67.676 45.86 67.676 45.464C67.676 45.068 67.8153 44.7307 68.094 44.452C68.3727 44.1733 68.71 44.034 69.106 44.034ZM72.45 44.034C72.846 44.034 73.1833 44.1733 73.462 44.452C73.7407 44.7307 73.88 45.068 73.88 45.464C73.88 45.86 73.7407 46.1973 73.462 46.476C73.1833 46.7547 72.846 46.894 72.45 46.894C72.0687 46.894 71.7387 46.7547 71.46 46.476C71.1813 46.1973 71.042 45.86 71.042 45.464C71.042 45.068 71.1813 44.7307 71.46 44.452C71.7387 44.1733 72.0687 44.034 72.45 44.034ZM79.236 22.54C79.632 22.54 79.9693 22.6793 80.248 22.958C80.5266 23.2367 80.666 23.574 80.666 23.97C80.666 24.3513 80.5266 24.6813 80.248 24.96C79.9693 25.2387 79.632 25.378 79.236 25.378C78.84 25.378 78.5026 25.2387 78.224 24.96C77.9453 24.6813 77.806 24.3513 77.806 23.97C77.806 23.574 77.9453 23.2367 78.224 22.958C78.5026 22.6793 78.84 22.54 79.236 22.54ZM82.58 22.54C82.976 22.54 83.3133 22.6793 83.592 22.958C83.8706 23.2367 84.01 23.574 84.01 23.97C84.01 24.3513 83.8706 24.6813 83.592 24.96C83.3133 25.2387 82.976 25.378 82.58 25.378C82.1986 25.378 81.8686 25.2387 81.59 24.96C81.3113 24.6813 81.172 24.3513 81.172 23.97C81.172 23.574 81.3113 23.2367 81.59 22.958C81.8686 22.6793 82.1986 22.54 82.58 22.54ZM83.724 27.38V34.926V35.256H84.846V37.5H84.076L83.262 36.598H83.218C82.7193 37.1993 82.096 37.5 81.348 37.5H77.102V35.256H80.424C80.6293 35.256 80.776 35.1973 80.864 35.08C80.996 34.9627 81.062 34.816 81.062 34.64V27.38H83.724ZM88.602 35.256C88.25 34.4053 88.074 33.452 88.074 32.396C88.074 30.6653 88.6093 29.3233 89.68 28.37C90.5746 27.5633 91.7186 27.1527 93.112 27.138C94.3586 27.138 95.378 27.4313 96.17 28.018C97.138 28.7513 97.622 29.8073 97.622 31.186V34.706C97.622 34.838 97.6586 34.9627 97.732 35.08C97.8493 35.1973 97.9813 35.256 98.128 35.256H98.326V37.5H97.358C96.698 37.5 96.1333 37.2653 95.664 36.796C94.9453 37.7053 93.992 38.16 92.804 38.16C91.528 38.16 90.4426 37.6907 89.548 36.752H89.504L88.888 37.5H84.686V35.256H88.602ZM94.938 31.186C94.938 30.6433 94.7693 30.2033 94.432 29.866C94.124 29.5287 93.684 29.36 93.112 29.36C92.3933 29.36 91.814 29.6387 91.374 30.196C90.9486 30.7533 90.736 31.5013 90.736 32.44C90.736 33.4667 90.956 34.3027 91.396 34.948C91.836 35.5933 92.4006 35.916 93.09 35.916C93.7206 35.916 94.3366 35.6153 94.938 35.014V31.186ZM101.874 24.102C101.639 23.706 101.522 23.288 101.522 22.848C101.522 22.2173 101.705 21.7187 102.072 21.352C102.439 20.9707 102.93 20.78 103.546 20.78C103.942 20.78 104.323 20.8387 104.69 20.956V22.122C104.338 22.034 104.067 21.99 103.876 21.99C103.597 21.99 103.363 22.0927 103.172 22.298C102.996 22.4887 102.908 22.738 102.908 23.046C102.908 23.3247 102.989 23.552 103.15 23.728C103.311 23.9773 103.575 24.102 103.942 24.102H105.416V24.652L104.91 25.29H101.016V24.102H101.874ZM104.8 27.38V35.08C104.8 35.652 104.609 36.18 104.228 36.664C103.744 37.2213 103.143 37.5 102.424 37.5H98.1781V35.256H101.566C101.727 35.256 101.867 35.1973 101.984 35.08C102.087 34.9773 102.138 34.8527 102.138 34.706V27.38H104.8ZM110.524 21.748V34.706C110.524 34.8527 110.568 34.97 110.656 35.058C110.744 35.19 110.884 35.256 111.074 35.256H111.646V37.5H110.216C109.615 37.5 109.087 37.2873 108.632 36.862C108.104 36.378 107.84 35.784 107.84 35.08V21.748H110.524ZM118.362 22.54C118.758 22.54 119.096 22.6793 119.374 22.958C119.653 23.2367 119.792 23.574 119.792 23.97C119.792 24.3513 119.653 24.6813 119.374 24.96C119.096 25.2387 118.758 25.378 118.362 25.378C117.981 25.378 117.651 25.2387 117.372 24.96C117.094 24.6813 116.954 24.3513 116.954 23.97C116.954 23.574 117.094 23.2367 117.372 22.958C117.651 22.6793 117.981 22.54 118.362 22.54ZM121.706 22.54C122.102 22.54 122.44 22.6793 122.718 22.958C122.997 23.2367 123.136 23.574 123.136 23.97C123.136 24.3513 122.997 24.6813 122.718 24.96C122.44 25.2387 122.102 25.378 121.706 25.378C121.325 25.378 120.995 25.2387 120.716 24.96C120.438 24.6813 120.298 24.3513 120.298 23.97C120.298 23.574 120.438 23.2367 120.716 22.958C120.995 22.6793 121.325 22.54 121.706 22.54ZM115.92 35.256C115.583 34.8307 115.319 34.3247 115.128 33.738C114.967 33.1807 114.886 32.6233 114.886 32.066C114.886 30.7753 115.26 29.6973 116.008 28.832C116.962 27.688 118.304 27.116 120.034 27.116C121.266 27.116 122.293 27.446 123.114 28.106C124.009 28.8687 124.456 29.8953 124.456 31.186V35.08C124.456 35.6813 124.258 36.2167 123.862 36.686C123.393 37.2287 122.799 37.5 122.08 37.5H111.498V35.256H115.92ZM121.772 31.186C121.772 30.5847 121.567 30.1007 121.156 29.734C120.834 29.4847 120.46 29.36 120.034 29.36C119.081 29.36 118.392 29.734 117.966 30.482C117.688 30.9513 117.548 31.5453 117.548 32.264C117.548 33.2467 117.856 34.0167 118.472 34.574C118.971 35.0287 119.624 35.256 120.43 35.256H121.222C121.589 35.256 121.772 35.0727 121.772 34.706V31.186Z" fill="black"/>
<rect x="167.82" y="45.5391" width="31.2775" height="8.92857" rx="4.46429" transform="rotate(-120 167.82 45.5391)" fill="#F6EBDD"/>
<rect x="133" y="35.2734" width="50" height="8.92857" rx="4.46429" fill="#612EF6"/>
<path d="M158.585 41.0731L158.585 35.2717L155.236 35.2717L158.585 41.0731Z" fill="#612EF6"/>
<path fill-rule="evenodd" clip-rule="evenodd" d="M138.77 15.6804C136.635 16.9131 135.903 19.6435 137.136 21.7787L150.081 44.2003L153.169 44.2003L158.585 41.0731L155.236 35.2717L144.868 17.3144C143.635 15.1792 140.905 14.4476 138.77 15.6804Z" fill="#612EF6"/>
<path d="M158.585 44.2003L158.585 41.0731L153.169 44.2003L158.585 44.2003Z" fill="#612EF6"/>
</svg>
