<svg width="188" height="59" viewBox="0 0 188 59" fill="none" xmlns="http://www.w3.org/2000/svg">
<path d="M9.13 26.786C9.526 26.786 9.86333 26.9253 10.142 27.204C10.4207 27.4827 10.56 27.82 10.56 28.216C10.56 28.612 10.4207 28.9493 10.142 29.228C9.86333 29.5067 9.526 29.646 9.13 29.646C8.74867 29.646 8.41867 29.5067 8.14 29.228C7.86133 28.9493 7.722 28.612 7.722 28.216C7.722 27.82 7.86133 27.4827 8.14 27.204C8.41867 26.9253 8.74867 26.786 9.13 26.786ZM12.496 26.786C12.8773 26.786 13.2073 26.9253 13.486 27.204C13.7647 27.4827 13.904 27.82 13.904 28.216C13.904 28.612 13.7647 28.9493 13.486 29.228C13.2073 29.5067 12.8773 29.646 12.496 29.646C12.1 29.646 11.7627 29.5067 11.484 29.228C11.2053 28.9493 11.066 28.612 11.066 28.216C11.066 27.82 11.2053 27.4827 11.484 27.204C11.7627 26.9253 12.1 26.786 12.496 26.786ZM20.064 27.38V34.926C20.064 35.0727 20.0567 35.1827 20.042 35.256H21.186V37.5H20.438L19.602 36.598H19.536C19.0813 37.1993 18.4653 37.5 17.688 37.5H5.368C4.42933 37.5 3.61533 37.1993 2.926 36.598C1.98733 35.8207 1.518 34.8013 1.518 33.54V30.064L2.882 28.964H4.202V33.54C4.202 34.0533 4.378 34.4713 4.73 34.794C5.06733 35.102 5.456 35.256 5.896 35.256H16.764C16.9547 35.256 17.116 35.19 17.248 35.058C17.336 34.9407 17.38 34.8013 17.38 34.64V27.38H20.064ZM27.6537 27.38V34.926V35.256H28.7757V37.5H28.0057L27.1917 36.598H27.1477C26.649 37.1993 26.0257 37.5 25.2777 37.5H21.0317V35.256H24.3537C24.559 35.256 24.7057 35.1973 24.7937 35.08C24.9257 34.9627 24.9917 34.816 24.9917 34.64V27.38H27.6537ZM22.8797 39.106C23.2757 39.106 23.613 39.2453 23.8917 39.524C24.1703 39.8027 24.3097 40.14 24.3097 40.536C24.3097 40.932 24.1703 41.2693 23.8917 41.548C23.613 41.8267 23.2757 41.966 22.8797 41.966C22.4837 41.966 22.1463 41.8267 21.8677 41.548C21.589 41.2693 21.4497 40.932 21.4497 40.536C21.4497 40.14 21.589 39.8027 21.8677 39.524C22.1463 39.2453 22.4837 39.106 22.8797 39.106ZM26.2237 39.106C26.6197 39.106 26.957 39.2453 27.2357 39.524C27.5143 39.8027 27.6537 40.14 27.6537 40.536C27.6537 40.932 27.5143 41.2693 27.2357 41.548C26.957 41.8267 26.6197 41.966 26.2237 41.966C25.8423 41.966 25.5123 41.8267 25.2337 41.548C24.955 41.2693 24.8157 40.932 24.8157 40.536C24.8157 40.14 24.955 39.8027 25.2337 39.524C25.5123 39.2453 25.8423 39.106 26.2237 39.106ZM39.0876 21.44V23.926L34.4896 26.72C36.3816 27.4093 37.8996 28.5387 39.0436 30.108C40.0703 31.5453 40.5836 33.1147 40.5836 34.816C40.5836 35.608 40.3563 36.2533 39.9016 36.752C39.4616 37.2507 38.8896 37.5 38.1856 37.5H28.5936V35.256H37.3276C37.709 35.256 37.8996 35.0653 37.8996 34.684C37.7823 33.3053 37.2763 32.1027 36.3816 31.076C35.179 29.6533 33.529 28.832 31.4316 28.612C31.329 28.612 31.2776 28.5533 31.2776 28.436V25.928L39.0876 21.44ZM62.0397 21.748V36.972C62.0397 38.7173 61.5117 40.096 60.4557 41.108C59.341 42.208 57.7863 42.758 55.7917 42.758H53.6137C51.6923 42.758 50.1743 42.252 49.0597 41.24C47.9303 40.228 47.3657 38.8053 47.3657 36.972V33.034L48.7297 31.934H50.0497V36.73C50.0497 38.1233 50.3943 39.0987 51.0837 39.656C51.7877 40.228 52.9977 40.514 54.7137 40.514C56.371 40.514 57.537 40.2573 58.2117 39.744C58.9743 39.1573 59.3557 38.1527 59.3557 36.73V21.748H62.0397ZM69.7548 37.5C68.1414 37.5 66.8728 36.95 65.9488 35.85C65.1714 34.9113 64.7828 33.7527 64.7828 32.374C64.7828 30.7313 65.2448 29.448 66.1688 28.524C67.1368 27.5853 68.3761 27.116 69.8868 27.116C70.9868 27.116 71.9401 27.3873 72.7468 27.93C73.8028 28.6927 74.3308 29.778 74.3308 31.186V35.256H75.0348V37.5H74.3088C74.2061 39.084 73.6488 40.3233 72.6368 41.218C71.9328 41.8487 71.0894 42.2813 70.1068 42.516C69.4174 42.6773 68.7428 42.758 68.0828 42.758C67.8628 42.758 67.5474 42.7433 67.1368 42.714H67.0708L65.9488 41.328V40.36C66.5501 40.4627 67.1148 40.514 67.6428 40.514C70.0481 40.514 71.3608 39.5093 71.5808 37.5H69.7548ZM71.6468 31.186C71.6468 30.5993 71.4561 30.1373 71.0748 29.8C70.7374 29.5067 70.3414 29.36 69.8868 29.36C69.1388 29.36 68.5448 29.624 68.1048 30.152C67.6648 30.68 67.4448 31.406 67.4448 32.33C67.4448 33.2247 67.6868 33.936 68.1708 34.464C68.6548 34.992 69.3148 35.256 70.1508 35.256H71.6468V31.186ZM85.3655 21.44V23.926L80.7675 26.742C82.7035 27.4167 84.2288 28.5607 85.3435 30.174C86.3408 31.6113 86.8395 33.2027 86.8395 34.948C86.8395 34.9773 86.8395 35.0287 86.8395 35.102C86.8395 35.1753 86.8395 35.2267 86.8395 35.256H87.5435V37.5H87.1255L86.3775 36.598H86.3335C85.8202 37.1993 85.1968 37.5 84.4635 37.5H74.8715V35.256H83.6055C83.9868 35.256 84.1775 35.0653 84.1775 34.684C84.0748 33.4373 83.6275 32.2933 82.8355 31.252C81.6035 29.712 79.8948 28.832 77.7095 28.612C77.6068 28.612 77.5555 28.5533 77.5555 28.436V25.95L85.3655 21.44ZM110.739 27.38V35.08C110.739 35.74 110.504 36.312 110.035 36.796C109.58 37.2653 109.023 37.5 108.363 37.5H103.743L102.929 36.598H102.863C102.379 37.1993 101.763 37.5 101.015 37.5H96.3949L95.5589 36.598H95.4929C95.0089 37.1993 94.3929 37.5 93.6449 37.5H87.3969V35.256H92.7869C93.1536 35.256 93.3369 35.0727 93.3369 34.706V29.91H96.0209V34.31C96.0209 34.7353 96.0136 35.0507 95.9989 35.256H100.157C100.524 35.256 100.707 35.0727 100.707 34.706V28.634H103.391V34.508C103.391 34.596 103.384 34.728 103.369 34.904C103.369 35.0653 103.369 35.1827 103.369 35.256H107.505C107.872 35.256 108.055 35.0727 108.055 34.706V27.38H110.739Z" fill="black"/>
<rect x="167.82" y="45.5391" width="31.2775" height="8.92857" rx="4.46429" transform="rotate(-120 167.82 45.5391)" fill="#F6EBDD"/>
<rect x="133" y="35.2734" width="50" height="8.92857" rx="4.46429" fill="#612EF6"/>
<path d="M158.585 41.0731L158.585 35.2717L155.236 35.2717L158.585 41.0731Z" fill="#612EF6"/>
<path fill-rule="evenodd" clip-rule="evenodd" d="M138.77 15.6804C136.635 16.9131 135.903 19.6435 137.136 21.7787L150.081 44.2003L153.169 44.2003L158.585 41.0731L155.236 35.2717L144.868 17.3144C143.635 15.1792 140.905 14.4476 138.77 15.6804V15.6804Z" fill="#612EF6"/>
<path d="M158.585 44.2003L158.585 41.0731L153.169 44.2003L158.585 44.2003Z" fill="#612EF6"/>
</svg>
